HIERARCHY
ROOT hip
{
  OFFSET 0 0 0
  CHANNELS 6 Xposition Yposition Zposition Zrotation Yrotation Xrotation
  JOINT abdomen
  {
    OFFSET 0 20.6881 -0.73152
    CHANNELS 3 Zrotation Xrotation Yrotation
    JOINT chest
    {
      OFFSET 0 11.7043 -0.48768
      CHANNELS 3 Zrotation Xrotation Yrotation
      JOINT neck
      {
        OFFSET 0 22.1894 -2.19456
        CHANNELS 3 Zrotation Xrotation Yrotation
        JOINT head
        {
          OFFSET -0.24384 7.07133 1.2192
          CHANNELS 3 Zrotation Xrotation Yrotation
          JOINT leftEye
          {
            OFFSET 4.14528 8.04674 8.04672
            CHANNELS 3 Zrotation Xrotation Yrotation
            End Site
            {
              OFFSET 1 0 0
            }
          }
          JOINT rightEye
          {
            OFFSET -3.6576 8.04674 8.04672
            CHANNELS 3 Zrotation Xrotation Yrotation
            End Site
            {
              OFFSET 1 0 0
            }
          }
        }
      }
      JOINT rCollar
      {
        OFFSET -2.68224 19.2634 -4.8768
        CHANNELS 3 Zrotation Xrotation Yrotation
        JOINT rShldr
        {
          OFFSET -8.77824 -1.95073 1.46304
          CHANNELS 3 Zrotation Xrotation Yrotation
          JOINT rForeArm
          {
            OFFSET -28.1742 -1.7115 0.48768
            CHANNELS 3 Zrotation Xrotation Yrotation
            JOINT rHand
            {
              OFFSET -22.5879 0.773209 7.07136
              CHANNELS 3 Zrotation Xrotation Yrotation
              JOINT rThumb1
              {
                OFFSET -1.2192 -0.487915 3.41376
                CHANNELS 3 Zrotation Xrotation Yrotation
                JOINT rThumb2
                {
                  OFFSET -3.37035 -0.52449 3.41376
                  CHANNELS 3 Zrotation Xrotation Yrotation
                  End Site
                  {
                    OFFSET -1.78271 -1.18214 1.43049
                  }
                }
              }
              JOINT rIndex1
              {
                OFFSET -7.75947 0.938293 5.60832
                CHANNELS 3 Zrotation Xrotation Yrotation
                JOINT rIndex2
                {
                  OFFSET -2.54057 -0.884171 1.56538
                  CHANNELS 3 Zrotation Xrotation Yrotation
                  End Site
                  {
                    OFFSET -1.62519 -0.234802 1.16502
                  }
                }
              }
              JOINT rMid1
              {
                OFFSET -8.24714 1.18213 3.41376
                CHANNELS 3 Zrotation Xrotation Yrotation
                JOINT rMid2
                {
                  OFFSET -3.10165 -0.590103 1.0647
                  CHANNELS 3 Zrotation Xrotation Yrotation
                  End Site
                  {
                    OFFSET -2.48547 -0.328903 0.83742
                  }
                }
              }
              JOINT rRing1
              {
                OFFSET -8.82822 0.546677 1.51678
                CHANNELS 3 Zrotation Xrotation Yrotation
                JOINT rRing2
                {
                  OFFSET -2.60934 -0.819778 -0.0198488
                  CHANNELS 3 Zrotation Xrotation Yrotation
                  End Site
                  {
                    OFFSET -2.33842 -0.294052 0.168128
                  }
                }
              }
              JOINT rPinky1
              {
                OFFSET -8.27202 -0.0477905 -0.4584
                CHANNELS 3 Zrotation Xrotation Yrotation
                JOINT rPinky2
                {
                  OFFSET -1.82734 -0.647385 -0.700984
                  CHANNELS 3 Zrotation Xrotation Yrotation
                  End Site
                  {
                    OFFSET -1.69225 -0.51767 -0.607171
                  }
                }
              }
            }
          }
        }
      }
      JOINT lCollar
      {
        OFFSET 2.68224 19.2634 -4.8768
        CHANNELS 3 Zrotation Xrotation Yrotation
        JOINT lShldr
        {
          OFFSET 8.77824 -1.95073 1.46304
          CHANNELS 3 Zrotation Xrotation Yrotation
          JOINT lForeArm
          {
            OFFSET 28.1742 -1.7115 0.48768
            CHANNELS 3 Zrotation Xrotation Yrotation
            JOINT lHand
            {
              OFFSET 22.5879 0.773209 7.07136
              CHANNELS 3 Zrotation Xrotation Yrotation
              JOINT lThumb1
              {
                OFFSET 1.2192 -0.487915 3.41376
                CHANNELS 3 Zrotation Xrotation Yrotation
                JOINT lThumb2
                {
                  OFFSET 3.37035 -0.52449 3.41376
                  CHANNELS 3 Zrotation Xrotation Yrotation
                  End Site
                  {
                    OFFSET 1.78271 -1.18214 1.43049
                  }
                }
              }
              JOINT lIndex1
              {
                OFFSET 7.75947 0.938293 5.60832
                CHANNELS 3 Zrotation Xrotation Yrotation
                JOINT lIndex2
                {
                  OFFSET 2.54057 -0.884171 1.56538
                  CHANNELS 3 Zrotation Xrotation Yrotation
                  End Site
                  {
                    OFFSET 1.62519 -0.234802 1.16502
                  }
                }
              }
              JOINT lMid1
              {
                OFFSET 8.24714 1.18213 3.41376
                CHANNELS 3 Zrotation Xrotation Yrotation
                JOINT lMid2
                {
                  OFFSET 3.10165 -0.590103 1.0647
                  CHANNELS 3 Zrotation Xrotation Yrotation
                  End Site
                  {
                    OFFSET 2.48547 -0.328903 0.83742
                  }
                }
              }
              JOINT lRing1
              {
                OFFSET 8.82822 0.546677 1.51678
                CHANNELS 3 Zrotation Xrotation Yrotation
                JOINT lRing2
                {
                  OFFSET 2.60934 -0.819778 -0.0198488
                  CHANNELS 3 Zrotation Xrotation Yrotation
                  End Site
                  {
                    OFFSET 2.33842 -0.294052 0.168128
                  }
                }
              }
              JOINT lPinky1
              {
                OFFSET 8.27202 -0.0477905 -0.4584
                CHANNELS 3 Zrotation Xrotation Yrotation
                JOINT lPinky2
                {
                  OFFSET 1.82734 -0.647385 -0.700984
                  CHANNELS 3 Zrotation Xrotation Yrotation
                  End Site
                  {
                    OFFSET 1.69225 -0.51767 -0.607171
                  }
                }
              }
            }
          }
        }
      }
    }
  }
  JOINT rButtock
  {
    OFFSET -8.77824 4.35084 1.2192
    CHANNELS 3 Zrotation Xrotation Yrotation
    JOINT rThigh
    {
      OFFSET 0 -1.70687 -2.19456
      CHANNELS 3 Zrotation Xrotation Yrotation
      JOINT rShin
      {
        OFFSET 0 -36.8199 0.73152
        CHANNELS 3 Zrotation Xrotation Yrotation
        JOINT rFoot
        {
          OFFSET 0.73152 -45.1104 -5.12064
          CHANNELS 3 Zrotation Xrotation Yrotation
          End Site
          {
            OFFSET -1.1221 -3.69964 12.103
          }
        }
      }
    }
  }
  JOINT lButtock
  {
    OFFSET 8.77824 4.35084 1.2192
    CHANNELS 3 Zrotation Xrotation Yrotation
    JOINT lThigh
    {
      OFFSET 0 -1.70687 -2.19456
      CHANNELS 3 Zrotation Xrotation Yrotation
      JOINT lShin
      {
        OFFSET 0 -36.8199 0.73152
        CHANNELS 3 Zrotation Xrotation Yrotation
        JOINT lFoot
        {
          OFFSET -0.73152 -45.1104 -5.12064
          CHANNELS 3 Zrotation Xrotation Yrotation
          End Site
          {
            OFFSET 1.1221 -3.69964 12.103
          }
        }
      }
    }
  }
}
MOTION
Frames:	9
Frame Time:	0.00833333
55.8207 107.299 8.92832 -177.798 -2.4215 -161.436 8.16202 8.45862 3.17483 -1.31104 -11.5536 1.01998 -6.13232 4.48138 -3.01724 4.5678 -23.925 -3.91145 -0.0 0.0 0.0 -0.0 0.0 0.0 -1.25726e-13 2.26355e-13 6.96767e-14 -5.39675 -33.2842 30.7897 -16.2547 -8.92738 30.2097 -0.0694438 7.479 1.05713 9.72383e-10 7.36685e-11 5.75874e-10 1.68966e-09 1.03815e-10 9.8864e-10 9.72383e-10 7.36683e-11 5.75869e-10 7.73091 5.47488 0.417314 9.72381e-10 7.36677e-11 5.75873e-10 2.90554 0.965183 0.102902 9.72392e-10 7.36674e-11 5.75873e-10 10.2786 0.731801 0.0259123 9.72377e-10 7.36675e-11 5.75883e-10 2.22167 -0.733487 -0.20892 -1.25675e-13 2.26352e-13 6.9556e-14 2.69991 -27.7385 -25.4903 16.8231 -9.47596 -31.4278 0.131157 10.2521 -1.45665 -5.87778e-10 -3.69304e-10 -5.92223e-10 -1.02398e-09 -6.56488e-10 -1.02058e-09 -5.87773e-10 -3.69296e-10 -5.92206e-10 -7.73091 5.47488 -0.417314 -5.87778e-10 -3.69308e-10 -5.92222e-10 -2.90554 0.965183 -0.102902 -5.87783e-10 -3.69308e-10 -5.92222e-10 -10.2786 0.731801 -0.0259123 -5.87773e-10 -3.69305e-10 -5.92224e-10 -2.22167 -0.733487 0.20892 -2.03217e-16 0.0 -3.88251e-19 12.79 -11.5395 9.93218 0.0116195 20.5523 0.556453 -9.65709 -9.30867 -45.1914 2.03217e-16 0.0 3.88251e-19 -2.4232 -15.1798 -28.112 0.0855205 22.4013 -1.1486 16.9029 -34.4907 24.6547
55.8152 107.804 8.10874 -177.882 -2.846 -161.442 8.34725 9.45364 3.11786 -1.32534 -11.691 0.993665 -6.15562 4.72355 -3.13456 4.4572 -24.4154 -4.18453 -0.0 0.0 0.0 -0.0 0.0 0.0 -1.0201e-13 1.33585e-13 7.55879e-14 -4.09649 -31.3736 32.0231 -16.0532 -8.73677 29.785 -0.0572949 6.81451 0.962303 1.04083e-09 -8.53238e-10 3.05251e-10 1.80533e-09 -1.49905e-09 5.20027e-10 1.04083e-09 -8.53237e-10 3.05244e-10 7.73091 5.47488 0.417314 1.04083e-09 -8.53239e-10 3.05247e-10 2.90554 0.965183 0.102902 1.04084e-09 -8.53241e-10 3.05248e-10 10.2786 0.731801 0.0259123 1.04083e-09 -8.5324e-10 3.05257e-10 2.22167 -0.733487 -0.20892 -1.019e-13 1.33583e-13 7.54885e-14 0.166516 -27.3477 -27.8314 16.6578 -9.313 -31.0739 0.125422 10.0468 -1.42679 -8.22431e-10 -1.25798e-09 -3.33764e-10 -1.427e-09 -2.19306e-09 -5.70396e-10 -8.22429e-10 -1.25798e-09 -3.33748e-10 -7.73091 5.47488 -0.417314 -8.2243e-10 -1.25798e-09 -3.33764e-10 -2.90554 0.965183 -0.102902 -8.22434e-10 -1.25798e-09 -3.33765e-10 -10.2786 0.731801 -0.0259123 -8.22424e-10 -1.25798e-09 -3.33767e-10 -2.22167 -0.733487 0.20892 -2.03217e-16 0.0 -3.88251e-19 12.6944 -13.4434 10.0683 0.0127601 20.4895 0.565328 -8.49902 -8.12113 -45.0084 2.03217e-16 0.0 3.88251e-19 -2.58081 -16.8097 -29.1665 0.0868996 22.1998 -1.13178 16.8994 -35.5399 24.2127
55.7854 108.271 7.30663 -178.095 -3.133 -161.388 8.37256 10.5376 3.05217 -1.27991 -11.9426 0.964567 -6.10736 4.74814 -3.18262 4.37769 -24.7436 -4.31168 -0.0 0.0 0.0 -0.0 0.0 0.0 -2.89298e-14 3.80322e-14 4.57717e-14 -2.60558 -29.4517 33.4689 -15.9265 -8.61669 29.5234 -0.0586268 6.88017 0.9717 1.21173e-09 -1.51844e-09 7.32908e-11 2.0973e-09 -2.6474e-09 1.17016e-10 1.21173e-09 -1.51843e-09 7.32845e-11 7.73091 5.47488 0.417314 1.21173e-09 -1.51844e-09 7.32887e-11 2.90554 0.965183 0.102902 1.21174e-09 -1.51844e-09 7.32868e-11 10.2786 0.731801 0.0259123 1.21172e-09 -1.51844e-09 7.32939e-11 2.22167 -0.733487 -0.20892 -2.8807e-14 3.80285e-14 4.56929e-14 -2.40522 -26.9047 -30.3927 16.5337 -9.19154 -30.8106 0.130862 10.2744 -1.45974 -9.46799e-10 -2.02842e-09 2.01174e-11 -1.63799e-09 -3.52024e-09 4.45889e-11 -9.468e-10 -2.02842e-09 2.0134e-11 -7.73091 5.47488 -0.417314 -9.46798e-10 -2.02842e-09 2.01184e-11 -2.90554 0.965183 -0.102902 -9.46802e-10 -2.02842e-09 2.01164e-11 -10.2786 0.731801 -0.0259123 -9.46792e-10 -2.02842e-09 2.01132e-11 -2.22167 -0.733487 0.20892 -2.03217e-16 0.0 -3.88251e-19 12.4894 -15.4913 10.0532 0.0142364 20.4358 0.569375 -7.25774 -6.81336 -44.7842 2.03217e-16 0.0 3.88251e-19 -2.82069 -18.4877 -30.2931 0.0861152 21.9493 -1.12748 17.3512 -36.5988 24.3903
55.731 108.714 6.54668 -178.367 -3.3678 -161.305 8.289 11.6949 2.9754 -1.19003 -12.2717 0.931743 -6.01364 4.66212 -3.19521 4.31022 -25.0269 -4.36678 -0.0 0.0 0.0 -0.0 0.0 0.0 8.14144e-14 -6.90742e-14 -7.56003e-15 -1.06862 -27.4617 35.0875 -15.8639 -8.55863 29.3922 -0.0649274 7.25897 1.02572 1.44316e-09 -2.07559e-09 -1.54914e-10 2.49301e-09 -3.60721e-09 -2.8023e-10 1.44316e-09 -2.07557e-09 -1.54919e-10 7.73091 5.47488 0.417314 1.44316e-09 -2.07557e-09 -1.54913e-10 2.90554 0.965183 0.102902 1.44317e-09 -2.07559e-09 -1.54919e-10 10.2786 0.731801 0.0259123 1.44315e-09 -2.07559e-09 -1.54914e-10 2.22167 -0.733487 -0.20892 8.1523e-14 -6.90805e-14 -7.61905e-15 -4.99227 -26.3599 -33.1595 16.4449 -9.10622 -30.6201 0.142091 10.7096 -1.52296 -1.00174e-09 -2.76874e-09 4.6054e-10 -1.72775e-09 -4.79176e-09 8.09212e-10 -1.00175e-09 -2.76875e-09 4.60558e-10 -7.73091 5.47488 -0.417314 -1.00174e-09 -2.76874e-09 4.60543e-10 -2.90554 0.965183 -0.102902 -1.00175e-09 -2.76874e-09 4.60539e-10 -10.2786 0.731801 -0.0259123 -1.00173e-09 -2.76874e-09 4.60534e-10 -2.22167 -0.733487 0.20892 -2.03217e-16 0.0 -3.88251e-19 12.1857 -17.6918 9.94493 0.0162778 20.4004 0.570378 -5.9058 -5.35125 -44.5398 2.03217e-16 0.0 3.88251e-19 -3.15569 -20.2081 -31.5308 0.0838094 21.6601 -1.13098 18.1433 -37.6977 24.994
55.7125 109.108 5.84478 -178.558 -3.6254 -161.141 8.16018 12.866 2.9032 -1.08479 -12.6097 0.898595 -5.91938 4.5201 -3.20087 4.24914 -25.3482 -4.40725 -0.0 0.0 0.0 -0.0 0.0 0.0 1.87366e-13 -1.76628e-13 -5.8876e-14 0.49614 -25.5484 36.8959 -15.8158 -8.51574 29.2882 -0.073613 7.72993 1.09305 1.83629e-09 -4.07528e-09 -3.7189e-10 3.16831e-09 -7.06736e-09 -6.59586e-10 1.83629e-09 -4.07525e-09 -3.71894e-10 7.73091 5.47488 0.417314 1.83628e-09 -4.07525e-09 -3.71885e-10 2.90554 0.965183 0.102902 1.83629e-09 -4.07528e-09 -3.71896e-10 10.2786 0.731801 0.0259123 1.83628e-09 -4.07528e-09 -3.71893e-10 2.22167 -0.733487 -0.20892 1.87448e-13 -1.76637e-13 -5.8923e-14 -7.45298 -25.7147 -35.9973 16.3837 -9.04847 -30.4878 0.155016 11.1683 -1.58991 -1.15821e-09 -3.96226e-09 8.64916e-10 -1.99323e-09 -6.84984e-09 1.51264e-09 -1.15822e-09 -3.96228e-09 8.64936e-10 -7.73091 5.47488 -0.417314 -1.1582e-09 -3.96226e-09 8.64921e-10 -2.90554 0.965183 -0.102902 -1.15821e-09 -3.96226e-09 8.64916e-10 -10.2786 0.731801 -0.0259123 -1.1582e-09 -3.96226e-09 8.6491e-10 -2.22167 -0.733487 0.20892 -2.03217e-16 0.0 -3.88251e-19 11.8191 -19.9861 10.0152 0.0181222 20.3173 0.570129 -5.01495 -4.34612 -44.3232 2.03217e-16 0.0 3.88251e-19 -3.54119 -21.984 -32.7622 0.0808423 21.3371 -1.13563 19.0518 -38.6845 25.7751
55.7602 109.441 5.18585 -178.561 -3.8856 -160.909 8.04813 13.991 2.85131 -0.99303 -12.888 0.868546 -5.86959 4.37667 -3.22812 4.18706 -25.7902 -4.49141 -0.0 0.0 0.0 -0.0 0.0 0.0 2.47267e-13 -2.73523e-13 -8.26447e-14 2.08786 -23.8444 38.9068 -15.7318 -8.44041 29.1086 -0.0805889 8.07213 1.14211 2.49228e-09 -9.06811e-09 -5.70165e-10 4.29904e-09 -1.57167e-08 -1.00893e-09 2.49228e-09 -9.06809e-09 -5.70169e-10 7.73091 5.47488 0.417314 2.49227e-09 -9.06809e-09 -5.70159e-10 2.90554 0.965183 0.102902 2.49228e-09 -9.06812e-09 -5.70172e-10 10.2786 0.731801 0.0259123 2.49227e-09 -9.06812e-09 -5.70169e-10 2.22167 -0.733487 -0.20892 2.47326e-13 -2.73532e-13 -8.26944e-14 -9.64821 -24.9834 -38.7761 16.3425 -9.00941 -30.3991 0.164022 11.4665 -1.63359 -1.58713e-09 -6.0923e-09 1.11066e-09 -2.73138e-09 -1.05367e-08 1.94405e-09 -1.58715e-09 -6.09232e-09 1.11068e-09 -7.73091 5.47488 -0.417314 -1.58713e-09 -6.0923e-09 1.11067e-09 -2.90554 0.965183 -0.102902 -1.58714e-09 -6.0923e-09 1.11066e-09 -10.2786 0.731801 -0.0259123 -1.58713e-09 -6.0923e-09 1.11065e-09 -2.22167 -0.733487 0.20892 -2.03217e-16 0.0 -3.88251e-19 11.4727 -22.308 10.5502 0.0190151 20.1207 0.570422 -5.14519 -4.41818 -44.147 2.03217e-16 0.0 3.88251e-19 -3.91707 -23.8413 -33.8672 0.0782218 20.9855 -1.13484 19.8191 -39.4188 26.4603
55.8197 109.713 4.5863 -178.546 -4.1833 -160.667 7.97325 15.0551 2.81929 -0.915808 -13.0794 0.840605 -5.88895 4.23877 -3.29103 4.12248 -26.4259 -4.64671 -0.0 0.0 0.0 -0.0 0.0 0.0 2.38799e-13 -3.75426e-13 -6.25896e-14 3.66694 -22.3968 41.1717 -15.6067 -8.32668 28.8469 -0.0828505 8.15873 1.15461 3.80581e-09 -2.05726e-08 -7.95909e-10 6.56743e-09 -3.56532e-08 -1.41177e-09 3.80582e-09 -2.05726e-08 -7.95911e-10 7.73091 5.47488 0.417314 3.80581e-09 -2.05726e-08 -7.95904e-10 2.90554 0.965183 0.102902 3.80582e-09 -2.05726e-08 -7.95915e-10 10.2786 0.731801 0.0259123 3.80581e-09 -2.05726e-08 -7.9591e-10 2.22167 -0.733487 -0.20892 2.38834e-13 -3.75433e-13 -6.26638e-14 -11.446 -24.1451 -41.438 16.3346 -9.00171 -30.3828 0.165731 11.519 -1.64131 -2.62959e-09 -1.04927e-08 1.14619e-09 -4.53217e-09 -1.8167e-08 2.01792e-09 -2.6296e-09 -1.04927e-08 1.1462e-09 -7.73091 5.47488 -0.417314 -2.62958e-09 -1.04927e-08 1.1462e-09 -2.90554 0.965183 -0.102902 -2.62959e-09 -1.04927e-08 1.14619e-09 -10.2786 0.731801 -0.0259123 -2.62958e-09 -1.04927e-08 1.14618e-09 -2.22167 -0.733487 0.20892 -2.03217e-16 0.0 -3.88251e-19 11.2836 -24.6906 11.7771 0.0183368 19.7699 0.570488 -6.58514 -5.8121 -44.409 2.03217e-16 0.0 3.88251e-19 -4.2492 -25.8904 -34.88 0.0762816 20.6007 -1.13023 20.4699 -39.7957 27.1279
55.8341 109.929 4.02705 -178.704 -4.5018 -160.391 7.89968 16.0896 2.80041 -0.839802 -13.2232 0.813595 -5.9495 4.07983 -3.37221 4.05553 -27.194 -4.84025 -0.0 0.0 0.0 -0.0 0.0 0.0 1.87915e-13 -4.82052e-13 -1.54835e-14 5.25938 -21.1029 43.6553 -15.4639 -8.19719 28.5512 -0.0828591 8.13021 1.15062 5.60038e-09 -3.67268e-08 -1.03705e-09 9.66789e-09 -6.36493e-08 -1.84568e-09 5.60038e-09 -3.67268e-08 -1.03705e-09 7.73091 5.47488 0.417314 5.60037e-09 -3.67268e-08 -1.03705e-09 2.90554 0.965183 0.102902 5.60038e-09 -3.67269e-08 -1.03706e-09 10.2786 0.731801 0.0259123 5.60037e-09 -3.67268e-08 -1.03705e-09 2.22167 -0.733487 -0.20892 1.87921e-13 -4.82054e-13 -1.55984e-14 -12.9369 -23.2114 -44.0556 16.3594 -9.02535 -30.4357 0.163289 11.436 -1.62916 -4.09591e-09 -1.65041e-08 1.04318e-09 -7.06697e-09 -2.85948e-08 1.85646e-09 -4.09591e-09 -1.65041e-08 1.04319e-09 -7.73091 5.47488 -0.417314 -4.0959e-09 -1.65041e-08 1.04319e-09 -2.90554 0.965183 -0.102902 -4.09591e-09 -1.65041e-08 1.04318e-09 -10.2786 0.731801 -0.0259123 -4.0959e-09 -1.65041e-08 1.04318e-09 -2.22167 -0.733487 0.20892 -2.03217e-16 0.0 -3.88251e-19 11.2889 -27.1181 13.5482 0.0166148 19.3077 0.569818 -9.02374 -8.14371 -45.0355 2.03217e-16 0.0 3.88251e-19 -4.57701 -28.0926 -35.8692 0.074537 20.1819 -1.12425 21.0951 -39.9127 27.8573
55.8212 110.072 3.47793 -178.951 -4.6066 -160.006 7.80359 17.1047 2.80124 -0.772149 -13.3517 0.790693 -6.01739 3.90422 -3.45304 3.98173 -27.9751 -5.03948 -0.0 0.0 0.0 -0.0 0.0 0.0 1.2537e-13 -5.58362e-13 3.46309e-14 6.97446 -19.8701 46.2429 -15.2946 -8.04631 28.2004 -0.0836107 8.16666 1.15585 7.12032e-09 -5.10105e-08 -1.19877e-09 1.22946e-08 -8.8405e-08 -2.13955e-09 7.12032e-09 -5.10105e-08 -1.19876e-09 7.73091 5.47488 0.417314 7.12032e-09 -5.10105e-08 -1.19877e-09 2.90554 0.965183 0.102902 7.12033e-09 -5.10105e-08 -1.19877e-09 10.2786 0.731801 0.0259123 7.12031e-09 -5.10105e-08 -1.19876e-09 2.22167 -0.733487 -0.20892 1.25352e-13 -5.5836e-13 3.44705e-14 -14.3266 -22.2438 -46.6997 16.3875 -9.05215 -30.4953 0.160039 11.3264 -1.61311 -5.36095e-09 -2.16198e-08 8.63941e-10 -9.25481e-09 -3.74716e-08 1.56043e-09 -5.36095e-09 -2.16198e-08 8.63942e-10 -7.73091 5.47488 -0.417314 -5.36094e-09 -2.16198e-08 8.63942e-10 -2.90554 0.965183 -0.102902 -5.36095e-09 -2.16198e-08 8.63937e-10 -10.2786 0.731801 -0.0259123 -5.36095e-09 -2.16198e-08 8.63934e-10 -2.22167 -0.733487 0.20892 -2.03217e-16 0.0 -3.88251e-19 11.4096 -29.452 15.5814 0.0148785 18.7937 0.570576 -12.0494 -11.169 -45.3481 2.03217e-16 0.0 3.88251e-19 -4.91599 -30.2712 -36.7406 0.0730255 19.74 -1.1116 21.5157 -39.9487 28.3651
